<svg width="155" height="48" viewBox="0 0 155 48" fill="none" xmlns="http://www.w3.org/2000/svg">
<path d="M15.3993 25.414V17.3222L24.0845 12.2919C13.6983 6.81007 5.53511 5.59088 0.126002 5.66313C0.0360002 6.78298 0 7.90282 0 9.04977C0 26.1275 9.8282 40.9023 24.1115 48.0007C24.1295 47.9916 24.1385 47.9826 24.1565 47.9826C14.2653 39.358 15.3993 25.414 15.3993 25.414Z" fill="url(#paint0_linear_3210_15683)"/>
<path d="M48.0611 5.31929V5.31025C40.7979 1.90555 32.6978 0 24.1566 0C15.5794 0 7.44325 1.92361 0.1531 5.35541C0.1441 5.45475 0.135099 5.56312 0.126099 5.66247C5.54421 5.59925 13.6984 6.81844 24.0936 12.2913L24.1566 12.2551L32.9048 17.3215V27.4634L30.0067 29.1432C30.0067 29.1342 46.5581 22.397 48.0611 5.31929Z" fill="url(#paint1_linear_3210_15683)"/>
<path d="M48.061 5.31934C43.8939 22.668 30.0066 29.1432 30.0066 29.1432L24.1565 32.5299L15.4083 27.4635V25.4224C15.4083 25.4224 14.2743 39.3573 24.1565 47.973C38.4218 40.8655 48.223 26.1088 48.223 9.04916C48.223 7.78481 48.16 6.54756 48.061 5.31934Z" fill="url(#paint2_linear_3210_15683)"/>
<path d="M24.1475 14.585L25.8306 19.7598H31.2577L26.8656 22.9567L28.5396 28.1406L24.1475 24.9436L19.7554 28.1406L21.4385 22.9567L17.0464 19.7598H22.4735L24.1475 14.585Z" fill="#FAAF40"/>
<path d="M102.737 33.1528L106.553 26.5241H98.1648C95.7797 26.3705 93.8987 24.3837 93.8987 21.9544C93.8987 19.525 95.7887 17.5382 98.1648 17.3846H111.251L115.067 10.7559H98.0928V10.7649C92.1077 10.9636 87.3105 15.8945 87.3105 21.9544C87.3105 28.0142 92.1077 32.9451 98.0928 33.1438V33.1528H102.737Z" fill="#549ADA"/>
<path d="M134.742 32.9546L122.691 12.0116C121.872 10.5847 119.82 10.5847 119.001 12.0116L106.967 32.9546H113.897L119.748 22.8127L119.757 22.8308L120.846 20.9343L124.086 26.5696H120.297C119.28 28.3487 117.831 30.8955 116.66 32.9455L134.742 32.9546Z" fill="#549ADA"/>
<path d="M64.9814 20.4106V33.1534H58.2583V10.8828H65.3324L77.4647 23.7701V10.8828H84.1518V33.1534H77.1767L64.9814 20.4106Z" fill="#549ADA"/>
<path d="M61.1405 41.2031H60.4961V39.8871H59.2886V41.2031H58.642V38.1541H59.2886V39.3491H60.4961V38.1541H61.1405V41.2031ZM61.9122 41.2031V38.1541H62.5587V41.2031H61.9122ZM65.0822 41.2031H63.3262V38.1541H65.0822V38.6838H63.9727V39.3532H65.0051V39.883H63.9727V40.6692H65.0822V41.2031ZM64.2334 42.0999C64.1375 42.0999 64.0554 42.077 63.9873 42.0311C63.9206 41.9866 63.8872 41.906 63.8872 41.7892C63.8872 41.6696 63.9206 41.5876 63.9873 41.5431C64.0554 41.4986 64.1375 41.4763 64.2334 41.4763C64.3279 41.4763 64.4093 41.4986 64.4774 41.5431C64.5455 41.5876 64.5796 41.6696 64.5796 41.7892C64.5796 41.906 64.5455 41.9866 64.4774 42.0311C64.4093 42.077 64.3279 42.0999 64.2334 42.0999ZM64.6025 37.2135C64.6429 37.2774 64.695 37.3483 64.759 37.4262C64.8243 37.5041 64.891 37.5798 64.9592 37.6535C65.0273 37.7272 65.0864 37.7898 65.1364 37.8412V37.8975H64.7152C64.6401 37.853 64.5581 37.8002 64.4691 37.739C64.3815 37.6765 64.3008 37.6069 64.2271 37.5305C64.1521 37.6069 64.0721 37.6758 63.9873 37.7369C63.9025 37.7967 63.8232 37.8503 63.7496 37.8975H63.3262V37.8412C63.379 37.7884 63.4395 37.7258 63.5076 37.6535C63.5758 37.5798 63.6418 37.5041 63.7058 37.4262C63.7697 37.3483 63.8212 37.2774 63.8601 37.2135H64.6025ZM66.6943 38.1541C67.0878 38.1541 67.3749 38.2389 67.5557 38.4085C67.7364 38.5767 67.8268 38.8089 67.8268 39.1051C67.8268 39.2385 67.8066 39.3665 67.7663 39.4888C67.726 39.6098 67.66 39.7175 67.5682 39.8121C67.4778 39.9066 67.3569 39.9817 67.2053 40.0373C67.0538 40.0915 66.8668 40.1186 66.6443 40.1186H66.3669V41.2031H65.7204V38.1541H66.6943ZM66.661 38.6838H66.3669V39.5889H66.5796C66.7006 39.5889 66.8056 39.5729 66.8946 39.5409C66.9835 39.509 67.0524 39.4589 67.101 39.3908C67.1497 39.3227 67.174 39.2351 67.174 39.128C67.174 38.9778 67.1323 38.8666 67.0489 38.7943C66.9655 38.7206 66.8362 38.6838 66.661 38.6838ZM72.0104 41.2031H71.366V39.8871H70.1584V41.2031H69.5119V38.1541H70.1584V39.3491H71.366V38.1541H72.0104V41.2031ZM75.5496 39.6744C75.5496 39.9094 75.5204 40.1235 75.462 40.3168C75.4036 40.5086 75.3146 40.6741 75.195 40.8131C75.0769 40.9522 74.9267 41.0592 74.7446 41.1343C74.5624 41.208 74.3469 41.2448 74.098 41.2448C73.8492 41.2448 73.6337 41.208 73.4515 41.1343C73.2694 41.0592 73.1185 40.9522 72.999 40.8131C72.8808 40.6741 72.7925 40.5079 72.7341 40.3147C72.6757 40.1214 72.6465 39.9066 72.6465 39.6702C72.6465 39.3546 72.6979 39.08 72.8008 38.8465C72.9051 38.6115 73.065 38.4293 73.2805 38.3C73.496 38.1707 73.7699 38.1061 74.1022 38.1061C74.4331 38.1061 74.7049 38.1707 74.9177 38.3C75.1318 38.4293 75.2903 38.6115 75.3932 38.8465C75.4975 39.0814 75.5496 39.3574 75.5496 39.6744ZM73.3243 39.6744C73.3243 39.8871 73.3507 40.0707 73.4036 40.225C73.4578 40.3779 73.5419 40.4961 73.6559 40.5795C73.7699 40.6616 73.9173 40.7026 74.098 40.7026C74.2816 40.7026 74.4303 40.6616 74.5444 40.5795C74.6584 40.4961 74.7411 40.3779 74.7925 40.225C74.8454 40.0707 74.8718 39.8871 74.8718 39.6744C74.8718 39.3546 74.812 39.103 74.6924 38.9194C74.5729 38.7359 74.3761 38.6442 74.1022 38.6442C73.9201 38.6442 73.7713 38.6859 73.6559 38.7693C73.5419 38.8513 73.4578 38.9695 73.4036 39.1238C73.3507 39.2768 73.3243 39.4603 73.3243 39.6744ZM74.098 42.0999C74.0021 42.0999 73.9201 42.077 73.852 42.0311C73.7852 41.9866 73.7518 41.906 73.7518 41.7892C73.7518 41.6696 73.7852 41.5876 73.852 41.5431C73.9201 41.4986 74.0021 41.4763 74.098 41.4763C74.1926 41.4763 74.2739 41.4986 74.3421 41.5431C74.4102 41.5876 74.4442 41.6696 74.4442 41.7892C74.4442 41.906 74.4102 41.9866 74.3421 42.0311C74.2739 42.077 74.1926 42.0999 74.098 42.0999ZM74.4734 37.2135C74.5138 37.2774 74.5659 37.3483 74.6299 37.4262C74.6952 37.5041 74.7619 37.5798 74.8301 37.6535C74.8982 37.7272 74.9573 37.7898 75.0073 37.8412V37.8975H74.5861C74.511 37.853 74.429 37.8002 74.34 37.739C74.2524 37.6765 74.1717 37.6069 74.098 37.5305C74.023 37.6069 73.943 37.6758 73.8582 37.7369C73.7734 37.7967 73.6941 37.8503 73.6205 37.8975H73.1971V37.8412C73.2499 37.7884 73.3104 37.7258 73.3785 37.6535C73.4467 37.5798 73.5127 37.5041 73.5767 37.4262C73.6406 37.3483 73.6921 37.2774 73.731 37.2135H74.4734ZM76.1815 41.2031V38.1541H76.828V41.2031H76.1815ZM80.5716 41.2031L80.3505 40.4774H79.2389L79.0179 41.2031H78.3213L79.3974 38.1415H80.1879L81.2682 41.2031H80.5716ZM80.1962 39.9351L79.9751 39.226C79.9612 39.1788 79.9425 39.1183 79.9188 39.0446C79.8966 38.9695 79.8736 38.8937 79.85 38.8173C79.8277 38.7394 79.8097 38.672 79.7958 38.615C79.7819 38.672 79.7624 38.7429 79.7374 38.8277C79.7137 38.9111 79.6908 38.9904 79.6686 39.0654C79.6463 39.1405 79.6303 39.194 79.6206 39.226L79.4016 39.9351H80.1962ZM84.359 41.2031H83.5372L82.2108 38.8965H82.1921C82.1976 38.9924 82.2025 39.0891 82.2067 39.1864C82.2108 39.2837 82.215 39.3811 82.2192 39.4784C82.2233 39.5743 82.2275 39.6709 82.2317 39.7683V41.2031H81.654V38.1541H82.4694L83.7938 40.4377H83.8084C83.8056 40.3432 83.8021 40.2493 83.7979 40.1562C83.7938 40.063 83.7896 39.9699 83.7854 39.8767C83.7826 39.7836 83.7799 39.6904 83.7771 39.5973V38.1541H84.359V41.2031ZM88.943 41.2031H88.1213L86.7949 38.8965H86.7761C86.7817 38.9924 86.7865 39.0891 86.7907 39.1864C86.7949 39.2837 86.799 39.3811 86.8032 39.4784C86.8074 39.5743 86.8116 39.6709 86.8157 39.7683V41.2031H86.238V38.1541H87.0535L88.3778 40.4377H88.3924C88.3896 40.3432 88.3861 40.2493 88.382 40.1562C88.3778 40.063 88.3736 39.9699 88.3695 39.8767C88.3667 39.7836 88.3639 39.6904 88.3611 39.5973V38.1541H88.943V41.2031ZM89.7126 41.2031V38.1541H90.3591V41.2031H89.7126ZM93.8315 41.2031H93.0098L91.6834 38.8965H91.6646C91.6702 38.9924 91.6751 39.0891 91.6792 39.1864C91.6834 39.2837 91.6876 39.3811 91.6917 39.4784C91.6959 39.5743 91.7001 39.6709 91.7043 39.7683V41.2031H91.1266V38.1541H91.942L93.2663 40.4377H93.2809C93.2781 40.3432 93.2747 40.2493 93.2705 40.1562C93.2663 40.063 93.2622 39.9699 93.258 39.8767C93.2552 39.7836 93.2524 39.6904 93.2496 39.5973V38.1541H93.8315V41.2031ZM97.0996 41.2031H96.4551V39.8871H95.2476V41.2031H94.6011V38.1541H95.2476V39.3491H96.4551V38.1541H97.0996V41.2031ZM100.272 41.2031L99.5376 38.811H99.5188C99.5216 38.868 99.5258 38.9542 99.5313 39.0696C99.5383 39.1836 99.5445 39.3053 99.5501 39.4346C99.5557 39.5639 99.5584 39.6807 99.5584 39.785V41.2031H98.9807V38.1541H99.8608L100.582 40.4857H100.595L101.36 38.1541H102.24V41.2031H101.638V39.7599C101.638 39.664 101.639 39.5535 101.642 39.4283C101.646 39.3032 101.651 39.1843 101.656 39.0717C101.662 38.9577 101.666 38.8722 101.669 38.8152H101.65L100.864 41.2031H100.272ZM104.877 41.2031L104.656 40.4774H103.544L103.323 41.2031H102.626L103.702 38.1415H104.493L105.573 41.2031H104.877ZM104.501 39.9351L104.28 39.226C104.266 39.1788 104.247 39.1183 104.224 39.0446C104.202 38.9695 104.179 38.8937 104.155 38.8173C104.133 38.7394 104.115 38.672 104.101 38.615C104.087 38.672 104.067 38.7429 104.042 38.8277C104.019 38.9111 103.996 38.9904 103.974 39.0654C103.951 39.1405 103.935 39.194 103.926 39.226L103.707 39.9351H104.501ZM104.097 42.0999C104.001 42.0999 103.919 42.077 103.85 42.0311C103.784 41.9866 103.75 41.906 103.75 41.7892C103.75 41.6696 103.784 41.5876 103.85 41.5431C103.919 41.4986 104.001 41.4763 104.097 41.4763C104.191 41.4763 104.272 41.4986 104.341 41.5431C104.409 41.5876 104.443 41.6696 104.443 41.7892C104.443 41.906 104.409 41.9866 104.341 42.0311C104.272 42.077 104.191 42.0999 104.097 42.0999ZM108.664 41.2031H107.842L106.516 38.8965H106.497C106.503 38.9924 106.507 39.0891 106.512 39.1864C106.516 39.2837 106.52 39.3811 106.524 39.4784C106.528 39.5743 106.533 39.6709 106.537 39.7683V41.2031H105.959V38.1541H106.774L108.099 40.4377H108.113C108.111 40.3432 108.107 40.2493 108.103 40.1562C108.099 40.063 108.095 39.9699 108.09 39.8767C108.088 39.7836 108.085 39.6904 108.082 39.5973V38.1541H108.664V41.2031ZM110.591 39.4909H111.801V41.0717C111.641 41.1246 111.475 41.167 111.302 41.199C111.13 41.2295 110.934 41.2448 110.716 41.2448C110.413 41.2448 110.156 41.1851 109.944 41.0655C109.733 40.9459 109.573 40.7693 109.463 40.5357C109.353 40.3022 109.298 40.0151 109.298 39.6744C109.298 39.3546 109.359 39.078 109.481 38.8444C109.605 38.6108 109.785 38.43 110.022 38.3021C110.259 38.1742 110.549 38.1103 110.891 38.1103C111.053 38.1103 111.212 38.1276 111.369 38.1624C111.526 38.1972 111.669 38.2423 111.796 38.298L111.582 38.8152C111.488 38.7679 111.382 38.7283 111.263 38.6963C111.143 38.6643 111.018 38.6483 110.887 38.6483C110.699 38.6483 110.536 38.6914 110.397 38.7776C110.259 38.8638 110.152 38.9848 110.076 39.1405C110.001 39.2948 109.963 39.477 109.963 39.6869C109.963 39.8858 109.99 40.0623 110.045 40.2167C110.099 40.3696 110.184 40.4899 110.301 40.5775C110.418 40.6637 110.57 40.7068 110.758 40.7068C110.85 40.7068 110.927 40.7026 110.989 40.6943C111.053 40.6845 111.113 40.6748 111.169 40.6651V40.029H110.591V39.4909ZM116.405 39.6744C116.405 39.901 116.378 40.1089 116.324 40.298C116.271 40.4857 116.189 40.6484 116.078 40.786C115.967 40.9237 115.826 41.0314 115.655 41.1093L116.389 41.9289H115.561L115.002 41.2448C114.992 41.2448 114.984 41.2448 114.977 41.2448C114.97 41.2448 114.962 41.2448 114.954 41.2448C114.705 41.2448 114.49 41.208 114.307 41.1343C114.125 41.0592 113.974 40.9522 113.855 40.8131C113.737 40.6741 113.648 40.5079 113.59 40.3147C113.532 40.1214 113.502 39.9066 113.502 39.6702C113.502 39.3546 113.554 39.08 113.657 38.8465C113.761 38.6115 113.921 38.4293 114.136 38.3C114.352 38.1707 114.626 38.1061 114.958 38.1061C115.289 38.1061 115.561 38.1707 115.774 38.3C115.988 38.4293 116.146 38.6115 116.249 38.8465C116.353 39.0814 116.405 39.3574 116.405 39.6744ZM114.18 39.6744C114.18 39.8871 114.207 40.0707 114.259 40.225C114.314 40.3779 114.398 40.4961 114.512 40.5795C114.626 40.6616 114.773 40.7026 114.954 40.7026C115.137 40.7026 115.286 40.6616 115.4 40.5795C115.514 40.4961 115.597 40.3779 115.648 40.225C115.701 40.0707 115.728 39.8871 115.728 39.6744C115.728 39.3546 115.668 39.103 115.548 38.9194C115.429 38.7359 115.232 38.6442 114.958 38.6442C114.776 38.6442 114.627 38.6859 114.512 38.7693C114.398 38.8513 114.314 38.9695 114.259 39.1238C114.207 39.2768 114.18 39.4603 114.18 39.6744ZM119.519 38.1541V40.127C119.519 40.3369 119.473 40.5267 119.379 40.6963C119.288 40.8646 119.148 40.998 118.96 41.0968C118.774 41.1955 118.539 41.2448 118.255 41.2448C117.852 41.2448 117.545 41.1419 117.334 40.9362C117.122 40.7304 117.017 40.4579 117.017 40.1186V38.1541H117.661V40.0206C117.661 40.2723 117.712 40.4489 117.815 40.5503C117.918 40.6518 118.07 40.7026 118.272 40.7026C118.414 40.7026 118.529 40.6783 118.616 40.6296C118.705 40.5809 118.771 40.5059 118.812 40.4044C118.854 40.3029 118.875 40.1736 118.875 40.0164V38.1541H119.519ZM123.033 39.6744C123.033 39.9094 123.004 40.1235 122.946 40.3168C122.887 40.5086 122.798 40.6741 122.679 40.8131C122.561 40.9522 122.41 41.0592 122.228 41.1343C122.046 41.208 121.831 41.2448 121.582 41.2448C121.333 41.2448 121.117 41.208 120.935 41.1343C120.753 41.0592 120.602 40.9522 120.483 40.8131C120.365 40.6741 120.276 40.5079 120.218 40.3147C120.159 40.1214 120.13 39.9066 120.13 39.6702C120.13 39.3546 120.182 39.08 120.285 38.8465C120.389 38.6115 120.549 38.4293 120.764 38.3C120.98 38.1707 121.254 38.1061 121.586 38.1061C121.917 38.1061 122.189 38.1707 122.401 38.3C122.616 38.4293 122.774 38.6115 122.877 38.8465C122.981 39.0814 123.033 39.3574 123.033 39.6744ZM120.808 39.6744C120.808 39.8871 120.835 40.0707 120.887 40.225C120.942 40.3779 121.026 40.4961 121.14 40.5795C121.254 40.6616 121.401 40.7026 121.582 40.7026C121.765 40.7026 121.914 40.6616 122.028 40.5795C122.142 40.4961 122.225 40.3779 122.276 40.225C122.329 40.0707 122.356 39.8871 122.356 39.6744C122.356 39.3546 122.296 39.103 122.176 38.9194C122.057 38.7359 121.86 38.6442 121.586 38.6442C121.404 38.6442 121.255 38.6859 121.14 38.7693C121.026 38.8513 120.942 38.9695 120.887 39.1238C120.835 39.2768 120.808 39.4603 120.808 39.6744ZM122.343 37.91H122.005C121.934 37.8628 121.861 37.8099 121.786 37.7515C121.711 37.6931 121.637 37.6306 121.565 37.5638C121.49 37.6306 121.415 37.6931 121.34 37.7515C121.266 37.8099 121.195 37.8628 121.125 37.91H120.787V37.8537C120.835 37.7995 120.885 37.7397 120.937 37.6744C120.99 37.6076 121.042 37.5395 121.094 37.47C121.145 37.4005 121.193 37.3337 121.236 37.2698H121.893C121.937 37.3337 121.985 37.4005 122.036 37.47C122.088 37.5395 122.14 37.6076 122.193 37.6744C122.246 37.7397 122.296 37.7995 122.343 37.8537V37.91ZM122.157 37.4491C122.214 37.388 122.265 37.3261 122.31 37.2635C122.356 37.1996 122.401 37.1217 122.445 37.0299H122.948V37.0737C122.887 37.1558 122.813 37.2329 122.727 37.3052C122.641 37.3775 122.556 37.4436 122.474 37.5034H122.157V37.4491ZM124.96 38.6483C124.837 38.6483 124.727 38.6727 124.631 38.7213C124.536 38.7686 124.456 38.8374 124.391 38.9278C124.327 39.0182 124.278 39.1273 124.245 39.2552C124.212 39.3831 124.195 39.527 124.195 39.6869C124.195 39.9024 124.221 40.0867 124.274 40.2396C124.329 40.3912 124.412 40.5072 124.525 40.5879C124.637 40.6671 124.782 40.7068 124.96 40.7068C125.084 40.7068 125.208 40.6929 125.332 40.6651C125.457 40.6372 125.592 40.5976 125.738 40.5462V41.0884C125.603 41.144 125.471 41.1837 125.34 41.2073C125.209 41.2323 125.063 41.2448 124.9 41.2448C124.586 41.2448 124.327 41.1802 124.124 41.0509C123.923 40.9202 123.773 40.738 123.676 40.5045C123.578 40.2695 123.53 39.9956 123.53 39.6828C123.53 39.452 123.561 39.2406 123.624 39.0488C123.686 38.8569 123.778 38.6907 123.899 38.5503C124.02 38.4099 124.169 38.3014 124.347 38.225C124.525 38.1485 124.73 38.1103 124.96 38.1103C125.112 38.1103 125.264 38.1297 125.415 38.1687C125.568 38.2062 125.714 38.2583 125.853 38.3251L125.644 38.8506C125.53 38.7964 125.416 38.7491 125.3 38.7088C125.185 38.6685 125.072 38.6483 124.96 38.6483ZM128.656 39.4909H129.866V41.0717C129.706 41.1246 129.54 41.167 129.367 41.199C129.195 41.2295 128.999 41.2448 128.781 41.2448C128.478 41.2448 128.221 41.1851 128.01 41.0655C127.798 40.9459 127.638 40.7693 127.528 40.5357C127.418 40.3022 127.363 40.0151 127.363 39.6744C127.363 39.3546 127.424 39.078 127.547 38.8444C127.67 38.6108 127.85 38.43 128.087 38.3021C128.324 38.1742 128.614 38.1103 128.956 38.1103C129.118 38.1103 129.277 38.1276 129.434 38.1624C129.591 38.1972 129.734 38.2423 129.861 38.298L129.647 38.8152C129.554 38.7679 129.447 38.7283 129.328 38.6963C129.208 38.6643 129.083 38.6483 128.952 38.6483C128.764 38.6483 128.601 38.6914 128.462 38.7776C128.324 38.8638 128.217 38.9848 128.141 39.1405C128.066 39.2948 128.028 39.477 128.028 39.6869C128.028 39.8858 128.055 40.0623 128.11 40.2167C128.164 40.3696 128.249 40.4899 128.366 40.5775C128.483 40.6637 128.635 40.7068 128.823 40.7068C128.915 40.7068 128.992 40.7026 129.054 40.6943C129.118 40.6845 129.178 40.6748 129.234 40.6651V40.029H128.656V39.4909ZM130.593 41.2031V38.1541H131.24V41.2031H130.593ZM133.874 41.2031L133.653 40.4774H132.541L132.32 41.2031H131.624L132.7 38.1415H133.49L134.571 41.2031H133.874ZM133.499 39.9351L133.278 39.226C133.264 39.1788 133.245 39.1183 133.221 39.0446C133.199 38.9695 133.176 38.8937 133.152 38.8173C133.13 38.7394 133.112 38.672 133.098 38.615C133.084 38.672 133.065 38.7429 133.04 38.8277C133.016 38.9111 132.993 38.9904 132.971 39.0654C132.949 39.1405 132.933 39.194 132.923 39.226L132.704 39.9351H133.499Z" fill="#6F6D80"/>
<path d="M133.285 15.2559H131.094L131.082 14.0488H132.922C133.246 14.0488 133.512 14.0078 133.719 13.9258C133.926 13.8398 134.08 13.7168 134.182 13.5566C134.287 13.3926 134.34 13.1934 134.34 12.959C134.34 12.6934 134.289 12.4785 134.188 12.3145C134.09 12.1504 133.936 12.0312 133.725 11.957C133.518 11.8828 133.25 11.8457 132.922 11.8457H131.703V19H129.945V10.4688H132.922C133.418 10.4688 133.861 10.5156 134.252 10.6094C134.646 10.7031 134.98 10.8457 135.254 11.0371C135.527 11.2285 135.736 11.4707 135.881 11.7637C136.025 12.0527 136.098 12.3965 136.098 12.7949C136.098 13.1465 136.018 13.4707 135.857 13.7676C135.701 14.0645 135.453 14.3066 135.113 14.4941C134.777 14.6816 134.338 14.7852 133.795 14.8047L133.285 15.2559ZM133.209 19H130.613L131.299 17.6289H133.209C133.518 17.6289 133.77 17.5801 133.965 17.4824C134.16 17.3809 134.305 17.2441 134.398 17.0723C134.492 16.9004 134.539 16.7031 134.539 16.4805C134.539 16.2305 134.496 16.0137 134.41 15.8301C134.328 15.6465 134.195 15.5059 134.012 15.4082C133.828 15.3066 133.586 15.2559 133.285 15.2559H131.592L131.604 14.0488H133.713L134.117 14.5234C134.637 14.5156 135.055 14.6074 135.371 14.7988C135.691 14.9863 135.924 15.2305 136.068 15.5312C136.217 15.832 136.291 16.1543 136.291 16.498C136.291 17.0449 136.172 17.5059 135.934 17.8809C135.695 18.252 135.346 18.5312 134.885 18.7188C134.428 18.9062 133.869 19 133.209 19ZM140.422 19.1172C139.93 19.1172 139.488 19.0391 139.098 18.8828C138.707 18.7227 138.375 18.502 138.102 18.2207C137.832 17.9395 137.625 17.6133 137.48 17.2422C137.336 16.8672 137.264 16.4688 137.264 16.0469V15.8125C137.264 15.332 137.332 14.8926 137.469 14.4941C137.605 14.0957 137.801 13.75 138.055 13.457C138.312 13.1641 138.625 12.9395 138.992 12.7832C139.359 12.623 139.773 12.543 140.234 12.543C140.684 12.543 141.082 12.6172 141.43 12.7656C141.777 12.9141 142.068 13.125 142.303 13.3984C142.541 13.6719 142.721 14 142.842 14.3828C142.963 14.7617 143.023 15.1836 143.023 15.6484V16.3516H137.984V15.2266H141.365V15.0977C141.365 14.8633 141.322 14.6543 141.236 14.4707C141.154 14.2832 141.029 14.1348 140.861 14.0254C140.693 13.916 140.479 13.8613 140.217 13.8613C139.994 13.8613 139.803 13.9102 139.643 14.0078C139.482 14.1055 139.352 14.2422 139.25 14.418C139.152 14.5938 139.078 14.8008 139.027 15.0391C138.98 15.2734 138.957 15.5312 138.957 15.8125V16.0469C138.957 16.3008 138.992 16.5352 139.062 16.75C139.137 16.9648 139.24 17.1504 139.373 17.3066C139.51 17.4629 139.674 17.584 139.865 17.6699C140.061 17.7559 140.281 17.7988 140.527 17.7988C140.832 17.7988 141.115 17.7402 141.377 17.623C141.643 17.502 141.871 17.3203 142.062 17.0781L142.883 17.9688C142.75 18.1602 142.568 18.3438 142.338 18.5195C142.111 18.6953 141.838 18.8398 141.518 18.9531C141.197 19.0625 140.832 19.1172 140.422 19.1172ZM147.09 12.6602V13.8555H143.398V12.6602H147.09ZM144.312 11.0957H146V17.0898C146 17.2734 146.023 17.4141 146.07 17.5117C146.121 17.6094 146.195 17.6777 146.293 17.7168C146.391 17.752 146.514 17.7695 146.662 17.7695C146.768 17.7695 146.861 17.7656 146.943 17.7578C147.029 17.7461 147.102 17.7344 147.16 17.7227L147.166 18.9648C147.021 19.0117 146.865 19.0488 146.697 19.0762C146.529 19.1035 146.344 19.1172 146.141 19.1172C145.77 19.1172 145.445 19.0566 145.168 18.9355C144.895 18.8105 144.684 18.6113 144.535 18.3379C144.387 18.0645 144.312 17.7051 144.312 17.2598V11.0957ZM151.473 17.5703V14.7461C151.473 14.543 151.439 14.3691 151.373 14.2246C151.307 14.0762 151.203 13.9609 151.062 13.8789C150.926 13.7969 150.748 13.7559 150.529 13.7559C150.342 13.7559 150.18 13.7891 150.043 13.8555C149.906 13.918 149.801 14.0098 149.727 14.1309C149.652 14.248 149.615 14.3867 149.615 14.5469H147.928C147.928 14.2773 147.99 14.0215 148.115 13.7793C148.24 13.5371 148.422 13.3242 148.66 13.1406C148.898 12.9531 149.182 12.8066 149.51 12.7012C149.842 12.5957 150.213 12.543 150.623 12.543C151.115 12.543 151.553 12.625 151.936 12.7891C152.318 12.9531 152.619 13.1992 152.838 13.5273C153.061 13.8555 153.172 14.2656 153.172 14.7578V17.4707C153.172 17.8184 153.193 18.1035 153.236 18.3262C153.279 18.5449 153.342 18.7363 153.424 18.9004V19H151.719C151.637 18.8281 151.574 18.6133 151.531 18.3555C151.492 18.0938 151.473 17.832 151.473 17.5703ZM151.695 15.1387L151.707 16.0938H150.764C150.541 16.0938 150.348 16.1191 150.184 16.1699C150.02 16.2207 149.885 16.293 149.779 16.3867C149.674 16.4766 149.596 16.582 149.545 16.7031C149.498 16.8242 149.475 16.957 149.475 17.1016C149.475 17.2461 149.508 17.377 149.574 17.4941C149.641 17.6074 149.736 17.6973 149.861 17.7637C149.986 17.8262 150.133 17.8574 150.301 17.8574C150.555 17.8574 150.775 17.8066 150.963 17.7051C151.15 17.6035 151.295 17.4785 151.396 17.3301C151.502 17.1816 151.557 17.041 151.561 16.9082L152.006 17.623C151.943 17.7832 151.857 17.9492 151.748 18.1211C151.643 18.293 151.508 18.4551 151.344 18.6074C151.18 18.7559 150.982 18.8789 150.752 18.9766C150.521 19.0703 150.248 19.1172 149.932 19.1172C149.529 19.1172 149.164 19.0371 148.836 18.877C148.512 18.7129 148.254 18.4883 148.062 18.2031C147.875 17.9141 147.781 17.5859 147.781 17.2188C147.781 16.8867 147.844 16.5918 147.969 16.334C148.094 16.0762 148.277 15.8594 148.52 15.6836C148.766 15.5039 149.072 15.3691 149.439 15.2793C149.807 15.1855 150.232 15.1387 150.717 15.1387H151.695Z" fill="#F9F9FA"/>
<defs>
<linearGradient id="paint0_linear_3210_15683" x1="-6.5" y1="36.0005" x2="21" y2="8.50049" gradientUnits="userSpaceOnUse">
<stop offset="0.3122" stop-color="#549ADA"/>
<stop offset="0.9513" stop-color="#2A4BAC"/>
</linearGradient>
<linearGradient id="paint1_linear_3210_15683" x1="20.8429" y1="2.32306" x2="43.4344" y2="24.1446" gradientUnits="userSpaceOnUse">
<stop offset="0.3122" stop-color="#549ADA"/>
<stop offset="0.9513" stop-color="#2A4BAC"/>
</linearGradient>
<linearGradient id="paint2_linear_3210_15683" x1="47.9996" y1="34" x2="14.9996" y2="34" gradientUnits="userSpaceOnUse">
<stop offset="0.3122" stop-color="#549ADA"/>
<stop offset="0.9513" stop-color="#2A4BAC"/>
</linearGradient>
</defs>
</svg>
