<svg width="190" height="69" viewBox="0 0 190 69" fill="none" xmlns="http://www.w3.org/2000/svg">
<path d="M21.6731 36.8167V25.3533L33.8967 18.227C19.2791 10.4611 7.79016 8.73389 0.177336 8.83624C0.0506669 10.4227 0 12.0091 0 13.634C0 37.8274 13.8323 58.7583 33.9347 68.8144C33.96 68.8016 33.9727 68.7888 33.998 68.7888C20.0771 56.5706 21.6731 36.8167 21.6731 36.8167Z" fill="url(#paint0_linear_2858_5675)"/>
<path d="M67.6415 8.34962V8.33682C57.4193 3.51349 46.0191 0.813965 33.9982 0.813965C21.9266 0.813965 10.4757 3.53908 0.21549 8.40079C0.202823 8.54153 0.190155 8.69506 0.177488 8.83579C7.80298 8.74623 19.2792 10.4734 33.9095 18.2266L33.9982 18.1754L46.3104 25.3528V39.7205L42.2317 42.1001C42.2317 42.0873 65.5262 32.543 67.6415 8.34962Z" fill="url(#paint1_linear_2858_5675)"/>
<path d="M67.6414 8.34961C61.7766 32.9268 42.2315 42.1001 42.2315 42.1001L33.998 46.8979L21.6858 39.7205V36.829C21.6858 36.829 20.0897 56.5701 33.998 68.7756C54.0751 58.7067 67.8694 37.8014 67.8694 13.6335C67.8694 11.8424 67.7807 10.0896 67.6414 8.34961Z" fill="url(#paint2_linear_2858_5675)"/>
<path d="M33.9854 21.4766L36.3541 28.8075H43.9922L37.8108 33.3366L40.1668 40.6803L33.9854 36.1513L27.8039 40.6803L30.1726 33.3366L23.9911 28.8075H31.6293L33.9854 21.4766Z" fill="#FAAF40"/>
<path d="M144.593 47.7808L149.963 38.39H138.158C134.801 38.1725 132.154 35.3579 132.154 31.9163C132.154 28.4747 134.814 25.66 138.158 25.4425H156.576L161.946 16.0518H138.056V16.0646C129.633 16.346 122.882 23.3315 122.882 31.9163C122.882 40.5011 129.633 47.4866 138.056 47.768V47.7808H144.593Z" fill="#549ADA"/>
<path d="M189.637 47.4993L172.676 17.8301C171.523 15.8086 168.635 15.8086 167.482 17.8301L150.547 47.4993H160.3L168.534 33.1317L168.546 33.1572L170.079 30.4705L174.639 38.4539H169.306C167.875 40.9744 165.836 44.5823 164.189 47.4865L189.637 47.4993Z" fill="#549ADA"/>
<path d="M91.4552 29.7286V47.7809H81.993V16.231H91.9492L109.024 34.488V16.231H118.436V47.7809H108.619L91.4552 29.7286Z" fill="#549ADA"/>
<path d="M86.0417 58.1016H85.1364V56.2529H83.4401V58.1016H82.5319V53.8184H83.4401V55.4971H85.1364V53.8184H86.0417V58.1016ZM87.1257 58.1016V53.8184H88.0339V58.1016H87.1257ZM91.5788 58.1016H89.112V53.8184H91.5788V54.5625H90.0202V55.5029H91.4704V56.2471H90.0202V57.3516H91.5788V58.1016ZM90.3864 59.3613C90.2516 59.3613 90.1364 59.3291 90.0407 59.2646C89.9469 59.2021 89.9001 59.0889 89.9001 58.9248C89.9001 58.7568 89.9469 58.6416 90.0407 58.5791C90.1364 58.5166 90.2516 58.4854 90.3864 58.4854C90.5192 58.4854 90.6335 58.5166 90.7292 58.5791C90.8249 58.6416 90.8727 58.7568 90.8727 58.9248C90.8727 59.0889 90.8249 59.2021 90.7292 59.2646C90.6335 59.3291 90.5192 59.3613 90.3864 59.3613ZM90.905 52.4971C90.9616 52.5869 91.0348 52.6865 91.1247 52.7959C91.2165 52.9053 91.3102 53.0117 91.4059 53.1152C91.5016 53.2188 91.5846 53.3066 91.655 53.3789V53.458H91.0632C90.9577 53.3955 90.8425 53.3213 90.7175 53.2354C90.5944 53.1475 90.4811 53.0498 90.3776 52.9424C90.2721 53.0498 90.1598 53.1465 90.0407 53.2324C89.9216 53.3164 89.8102 53.3916 89.7067 53.458H89.112V53.3789C89.1862 53.3047 89.2712 53.2168 89.3669 53.1152C89.4626 53.0117 89.5553 52.9053 89.6452 52.7959C89.735 52.6865 89.8073 52.5869 89.862 52.4971H90.905ZM93.8434 53.8184C94.3962 53.8184 94.7995 53.9375 95.0534 54.1758C95.3073 54.4121 95.4342 54.7383 95.4342 55.1543C95.4342 55.3418 95.4059 55.5215 95.3493 55.6934C95.2926 55.8633 95.1999 56.0146 95.071 56.1475C94.944 56.2803 94.7741 56.3857 94.5612 56.4639C94.3483 56.54 94.0856 56.5781 93.7731 56.5781H93.3835V58.1016H92.4753V53.8184H93.8434ZM93.7966 54.5625H93.3835V55.834H93.6823C93.8522 55.834 93.9997 55.8115 94.1247 55.7666C94.2497 55.7217 94.3464 55.6514 94.4147 55.5557C94.4831 55.46 94.5173 55.3369 94.5173 55.1865C94.5173 54.9756 94.4587 54.8193 94.3415 54.7178C94.2243 54.6143 94.0426 54.5625 93.7966 54.5625ZM101.311 58.1016H100.406V56.2529H98.7096V58.1016H97.8014V53.8184H98.7096V55.4971H100.406V53.8184H101.311V58.1016ZM106.283 55.9541C106.283 56.2842 106.242 56.585 106.16 56.8564C106.078 57.126 105.953 57.3584 105.785 57.5537C105.619 57.749 105.408 57.8994 105.152 58.0049C104.896 58.1084 104.593 58.1602 104.244 58.1602C103.894 58.1602 103.591 58.1084 103.336 58.0049C103.08 57.8994 102.868 57.749 102.7 57.5537C102.534 57.3584 102.41 57.125 102.328 56.8535C102.246 56.582 102.205 56.2803 102.205 55.9482C102.205 55.5049 102.277 55.1191 102.422 54.791C102.568 54.4609 102.793 54.2051 103.095 54.0234C103.398 53.8418 103.783 53.751 104.25 53.751C104.715 53.751 105.096 53.8418 105.395 54.0234C105.696 54.2051 105.919 54.4609 106.063 54.791C106.21 55.1211 106.283 55.5088 106.283 55.9541ZM103.157 55.9541C103.157 56.2529 103.194 56.5107 103.268 56.7275C103.344 56.9424 103.463 57.1084 103.623 57.2256C103.783 57.3408 103.99 57.3984 104.244 57.3984C104.502 57.3984 104.711 57.3408 104.871 57.2256C105.031 57.1084 105.147 56.9424 105.219 56.7275C105.294 56.5107 105.331 56.2529 105.331 55.9541C105.331 55.5049 105.247 55.1514 105.079 54.8936C104.911 54.6357 104.634 54.5068 104.25 54.5068C103.994 54.5068 103.785 54.5654 103.623 54.6826C103.463 54.7979 103.344 54.9639 103.268 55.1807C103.194 55.3955 103.157 55.6533 103.157 55.9541ZM104.244 59.3613C104.109 59.3613 103.994 59.3291 103.898 59.2646C103.804 59.2021 103.757 59.0889 103.757 58.9248C103.757 58.7568 103.804 58.6416 103.898 58.5791C103.994 58.5166 104.109 58.4854 104.244 58.4854C104.377 58.4854 104.491 58.5166 104.587 58.5791C104.682 58.6416 104.73 58.7568 104.73 58.9248C104.73 59.0889 104.682 59.2021 104.587 59.2646C104.491 59.3291 104.377 59.3613 104.244 59.3613ZM104.771 52.4971C104.828 52.5869 104.901 52.6865 104.991 52.7959C105.083 52.9053 105.176 53.0117 105.272 53.1152C105.368 53.2188 105.451 53.3066 105.521 53.3789V53.458H104.929C104.824 53.3955 104.709 53.3213 104.584 53.2354C104.461 53.1475 104.347 53.0498 104.244 52.9424C104.138 53.0498 104.026 53.1465 103.907 53.2324C103.788 53.3164 103.676 53.3916 103.573 53.458H102.978V53.3789C103.052 53.3047 103.137 53.2168 103.233 53.1152C103.329 53.0117 103.422 52.9053 103.511 52.7959C103.601 52.6865 103.674 52.5869 103.728 52.4971H104.771ZM107.171 58.1016V53.8184H108.079V58.1016H107.171ZM113.338 58.1016L113.027 57.082H111.465L111.155 58.1016H110.176L111.688 53.8008H112.799L114.316 58.1016H113.338ZM112.81 56.3203L112.5 55.3242C112.48 55.2578 112.454 55.1729 112.421 55.0693C112.389 54.9639 112.357 54.8574 112.324 54.75C112.293 54.6406 112.267 54.5459 112.248 54.4658C112.228 54.5459 112.201 54.6455 112.166 54.7646C112.132 54.8818 112.1 54.9932 112.069 55.0986C112.038 55.2041 112.015 55.2793 112.002 55.3242L111.694 56.3203H112.81ZM118.658 58.1016H117.504L115.64 54.8613H115.614C115.622 54.9961 115.629 55.1318 115.634 55.2686C115.64 55.4053 115.646 55.542 115.652 55.6787C115.658 55.8135 115.664 55.9492 115.67 56.0859V58.1016H114.858V53.8184H116.004L117.864 57.0264H117.884C117.881 56.8936 117.876 56.7617 117.87 56.6309C117.864 56.5 117.858 56.3691 117.852 56.2383C117.848 56.1074 117.844 55.9766 117.84 55.8457V53.8184H118.658V58.1016ZM125.097 58.1016H123.943L122.08 54.8613H122.053C122.061 54.9961 122.068 55.1318 122.074 55.2686C122.08 55.4053 122.086 55.542 122.091 55.6787C122.097 55.8135 122.103 55.9492 122.109 56.0859V58.1016H121.298V53.8184H122.443L124.303 57.0264H124.324C124.32 56.8936 124.315 56.7617 124.309 56.6309C124.303 56.5 124.298 56.3691 124.292 56.2383C124.288 56.1074 124.284 55.9766 124.28 55.8457V53.8184H125.097V58.1016ZM126.178 58.1016V53.8184H127.087V58.1016H126.178ZM131.965 58.1016H130.81L128.947 54.8613H128.921C128.928 54.9961 128.935 55.1318 128.941 55.2686C128.947 55.4053 128.953 55.542 128.959 55.6787C128.965 55.8135 128.97 55.9492 128.976 56.0859V58.1016H128.165V53.8184H129.31L131.171 57.0264H131.191C131.187 56.8936 131.182 56.7617 131.176 56.6309C131.171 56.5 131.165 56.3691 131.159 56.2383C131.155 56.1074 131.151 55.9766 131.147 55.8457V53.8184H131.965V58.1016ZM136.555 58.1016H135.65V56.2529H133.954V58.1016H133.046V53.8184H133.954V55.4971H135.65V53.8184H136.555V58.1016ZM141.011 58.1016L139.98 54.7412H139.954C139.958 54.8213 139.964 54.9424 139.971 55.1045C139.981 55.2646 139.99 55.4355 139.998 55.6172C140.006 55.7988 140.009 55.9629 140.009 56.1094V58.1016H139.198V53.8184H140.434L141.448 57.0938H141.465L142.541 53.8184H143.777V58.1016H142.93V56.0742C142.93 55.9395 142.932 55.7842 142.936 55.6084C142.942 55.4326 142.949 55.2656 142.957 55.1074C142.965 54.9473 142.97 54.8271 142.974 54.7471H142.948L141.843 58.1016H141.011ZM147.48 58.1016L147.17 57.082H145.608L145.298 58.1016H144.319L145.831 53.8008H146.941L148.459 58.1016H147.48ZM146.953 56.3203L146.642 55.3242C146.623 55.2578 146.596 55.1729 146.563 55.0693C146.532 54.9639 146.5 54.8574 146.466 54.75C146.435 54.6406 146.41 54.5459 146.39 54.4658C146.371 54.5459 146.343 54.6455 146.308 54.7646C146.275 54.8818 146.243 54.9932 146.212 55.0986C146.18 55.2041 146.158 55.2793 146.144 55.3242L145.837 56.3203H146.953ZM146.384 59.3613C146.25 59.3613 146.134 59.3291 146.039 59.2646C145.945 59.2021 145.898 59.0889 145.898 58.9248C145.898 58.7568 145.945 58.6416 146.039 58.5791C146.134 58.5166 146.25 58.4854 146.384 58.4854C146.517 58.4854 146.632 58.5166 146.727 58.5791C146.823 58.6416 146.871 58.7568 146.871 58.9248C146.871 59.0889 146.823 59.2021 146.727 59.2646C146.632 59.3291 146.517 59.3613 146.384 59.3613ZM152.8 58.1016H151.646L149.783 54.8613H149.757C149.764 54.9961 149.771 55.1318 149.777 55.2686C149.783 55.4053 149.789 55.542 149.795 55.6787C149.8 55.8135 149.806 55.9492 149.812 56.0859V58.1016H149.001V53.8184H150.146L152.007 57.0264H152.027C152.023 56.8936 152.018 56.7617 152.012 56.6309C152.007 56.5 152.001 56.3691 151.995 56.2383C151.991 56.1074 151.987 55.9766 151.983 55.8457V53.8184H152.8V58.1016ZM155.507 55.6963H157.207V57.917C156.982 57.9912 156.749 58.0508 156.507 58.0957C156.264 58.1387 155.99 58.1602 155.683 58.1602C155.257 58.1602 154.896 58.0762 154.599 57.9082C154.302 57.7402 154.077 57.4922 153.923 57.1641C153.768 56.8359 153.691 56.4326 153.691 55.9541C153.691 55.5049 153.777 55.1162 153.949 54.7881C154.123 54.46 154.376 54.2061 154.708 54.0264C155.042 53.8467 155.449 53.7568 155.929 53.7568C156.156 53.7568 156.38 53.7812 156.6 53.8301C156.821 53.8789 157.021 53.9424 157.201 54.0205L156.899 54.7471C156.768 54.6807 156.619 54.625 156.451 54.5801C156.283 54.5352 156.107 54.5127 155.924 54.5127C155.66 54.5127 155.43 54.5732 155.235 54.6943C155.042 54.8154 154.891 54.9854 154.784 55.2041C154.678 55.4209 154.626 55.6768 154.626 55.9717C154.626 56.251 154.664 56.499 154.74 56.7158C154.816 56.9307 154.936 57.0996 155.1 57.2227C155.264 57.3438 155.478 57.4043 155.742 57.4043C155.871 57.4043 155.979 57.3984 156.067 57.3867C156.157 57.373 156.241 57.3594 156.319 57.3457V56.4521H155.507V55.6963ZM163.675 55.9541C163.675 56.2725 163.637 56.5645 163.561 56.8301C163.487 57.0938 163.372 57.3223 163.215 57.5156C163.059 57.709 162.861 57.8604 162.621 57.9697L163.652 59.1211H162.489L161.704 58.1602C161.69 58.1602 161.678 58.1602 161.669 58.1602C161.659 58.1602 161.648 58.1602 161.636 58.1602C161.287 58.1602 160.984 58.1084 160.728 58.0049C160.472 57.8994 160.26 57.749 160.092 57.5537C159.926 57.3584 159.802 57.125 159.72 56.8535C159.638 56.582 159.597 56.2803 159.597 55.9482C159.597 55.5049 159.67 55.1191 159.814 54.791C159.961 54.4609 160.185 54.2051 160.488 54.0234C160.791 53.8418 161.175 53.751 161.642 53.751C162.107 53.751 162.489 53.8418 162.788 54.0234C163.089 54.2051 163.311 54.4609 163.456 54.791C163.602 55.1211 163.675 55.5088 163.675 55.9541ZM160.549 55.9541C160.549 56.2529 160.587 56.5107 160.661 56.7275C160.737 56.9424 160.855 57.1084 161.015 57.2256C161.175 57.3408 161.382 57.3984 161.636 57.3984C161.894 57.3984 162.103 57.3408 162.263 57.2256C162.424 57.1084 162.54 56.9424 162.612 56.7275C162.686 56.5107 162.723 56.2529 162.723 55.9541C162.723 55.5049 162.639 55.1514 162.471 54.8936C162.303 54.6357 162.027 54.5068 161.642 54.5068C161.386 54.5068 161.177 54.5654 161.015 54.6826C160.855 54.7979 160.737 54.9639 160.661 55.1807C160.587 55.3955 160.549 55.6533 160.549 55.9541ZM168.049 53.8184V56.5898C168.049 56.8848 167.984 57.1514 167.853 57.3896C167.724 57.626 167.528 57.8135 167.264 57.9521C167.003 58.0908 166.673 58.1602 166.274 58.1602C165.708 58.1602 165.276 58.0156 164.979 57.7266C164.682 57.4375 164.534 57.0547 164.534 56.5781V53.8184H165.439V56.4404C165.439 56.7939 165.511 57.042 165.656 57.1846C165.8 57.3271 166.014 57.3984 166.298 57.3984C166.497 57.3984 166.658 57.3643 166.781 57.2959C166.906 57.2275 166.998 57.1221 167.056 56.9795C167.115 56.8369 167.144 56.6553 167.144 56.4346V53.8184H168.049ZM172.986 55.9541C172.986 56.2842 172.945 56.585 172.863 56.8564C172.781 57.126 172.656 57.3584 172.488 57.5537C172.322 57.749 172.111 57.8994 171.855 58.0049C171.599 58.1084 171.297 58.1602 170.947 58.1602C170.597 58.1602 170.295 58.1084 170.039 58.0049C169.783 57.8994 169.571 57.749 169.403 57.5537C169.237 57.3584 169.113 57.125 169.031 56.8535C168.949 56.582 168.908 56.2803 168.908 55.9482C168.908 55.5049 168.98 55.1191 169.125 54.791C169.271 54.4609 169.496 54.2051 169.799 54.0234C170.101 53.8418 170.486 53.751 170.953 53.751C171.418 53.751 171.799 53.8418 172.098 54.0234C172.399 54.2051 172.622 54.4609 172.766 54.791C172.913 55.1211 172.986 55.5088 172.986 55.9541ZM169.86 55.9541C169.86 56.2529 169.897 56.5107 169.971 56.7275C170.048 56.9424 170.166 57.1084 170.326 57.2256C170.486 57.3408 170.693 57.3984 170.947 57.3984C171.205 57.3984 171.414 57.3408 171.574 57.2256C171.734 57.1084 171.85 56.9424 171.923 56.7275C171.997 56.5107 172.034 56.2529 172.034 55.9541C172.034 55.5049 171.95 55.1514 171.782 54.8936C171.614 54.6357 171.338 54.5068 170.953 54.5068C170.697 54.5068 170.488 54.5654 170.326 54.6826C170.166 54.7979 170.048 54.9639 169.971 55.1807C169.897 55.3955 169.86 55.6533 169.86 55.9541ZM172.016 53.4756H171.542C171.442 53.4092 171.34 53.335 171.234 53.2529C171.129 53.1709 171.025 53.083 170.924 52.9893C170.818 53.083 170.713 53.1709 170.607 53.2529C170.504 53.335 170.403 53.4092 170.305 53.4756H169.831V53.3965C169.897 53.3203 169.967 53.2363 170.042 53.1445C170.116 53.0508 170.189 52.9551 170.261 52.8574C170.334 52.7598 170.4 52.666 170.461 52.5762H171.383C171.446 52.666 171.513 52.7598 171.586 52.8574C171.658 52.9551 171.731 53.0508 171.805 53.1445C171.88 53.2363 171.95 53.3203 172.016 53.3965V53.4756ZM171.756 52.8281C171.836 52.7422 171.907 52.6553 171.969 52.5674C172.034 52.4775 172.097 52.3682 172.16 52.2393H172.866V52.3008C172.78 52.416 172.676 52.5244 172.555 52.626C172.434 52.7275 172.316 52.8203 172.201 52.9043H171.756V52.8281ZM175.693 54.5127C175.519 54.5127 175.365 54.5469 175.23 54.6152C175.097 54.6816 174.985 54.7783 174.893 54.9053C174.803 55.0322 174.735 55.1855 174.688 55.3652C174.641 55.5449 174.618 55.7471 174.618 55.9717C174.618 56.2744 174.655 56.5332 174.729 56.748C174.805 56.9609 174.923 57.124 175.081 57.2373C175.239 57.3486 175.443 57.4043 175.693 57.4043C175.867 57.4043 176.041 57.3848 176.215 57.3457C176.39 57.3066 176.581 57.251 176.786 57.1787V57.9404C176.596 58.0186 176.41 58.0742 176.226 58.1074C176.043 58.1426 175.837 58.1602 175.608 58.1602C175.167 58.1602 174.803 58.0693 174.518 57.8877C174.235 57.7041 174.025 57.4482 173.888 57.1201C173.752 56.79 173.683 56.4053 173.683 55.9658C173.683 55.6416 173.727 55.3447 173.815 55.0752C173.903 54.8057 174.032 54.5723 174.202 54.375C174.372 54.1777 174.582 54.0254 174.832 53.918C175.082 53.8105 175.369 53.7568 175.693 53.7568C175.906 53.7568 176.119 53.7842 176.332 53.8389C176.547 53.8916 176.752 53.9648 176.947 54.0586L176.654 54.7969C176.494 54.7207 176.333 54.6543 176.171 54.5977C176.008 54.541 175.849 54.5127 175.693 54.5127ZM180.884 55.6963H182.584V57.917C182.359 57.9912 182.126 58.0508 181.883 58.0957C181.641 58.1387 181.367 58.1602 181.06 58.1602C180.634 58.1602 180.273 58.0762 179.976 57.9082C179.679 57.7402 179.454 57.4922 179.299 57.1641C179.145 56.8359 179.068 56.4326 179.068 55.9541C179.068 55.5049 179.154 55.1162 179.326 54.7881C179.5 54.46 179.753 54.2061 180.085 54.0264C180.419 53.8467 180.826 53.7568 181.306 53.7568C181.533 53.7568 181.757 53.7812 181.977 53.8301C182.198 53.8789 182.398 53.9424 182.578 54.0205L182.276 54.7471C182.145 54.6807 181.996 54.625 181.828 54.5801C181.66 54.5352 181.484 54.5127 181.3 54.5127C181.037 54.5127 180.807 54.5732 180.612 54.6943C180.419 54.8154 180.268 54.9854 180.161 55.2041C180.055 55.4209 180.003 55.6768 180.003 55.9717C180.003 56.251 180.041 56.499 180.117 56.7158C180.193 56.9307 180.313 57.0996 180.477 57.2227C180.641 57.3438 180.855 57.4043 181.119 57.4043C181.248 57.4043 181.356 57.3984 181.444 57.3867C181.534 57.373 181.618 57.3594 181.696 57.3457V56.4521H180.884V55.6963ZM183.606 58.1016V53.8184H184.514V58.1016H183.606ZM188.215 58.1016L187.904 57.082H186.342L186.032 58.1016H185.053L186.565 53.8008H187.675L189.193 58.1016H188.215ZM187.687 56.3203L187.377 55.3242C187.357 55.2578 187.331 55.1729 187.298 55.0693C187.266 54.9639 187.234 54.8574 187.201 54.75C187.17 54.6406 187.144 54.5459 187.125 54.4658C187.105 54.5459 187.078 54.6455 187.043 54.7646C187.009 54.8818 186.977 54.9932 186.946 55.0986C186.915 55.2041 186.892 55.2793 186.879 55.3242L186.571 56.3203H187.687Z" fill="#6F6D80"/>
<defs>
<linearGradient id="paint0_linear_2858_5675" x1="-9.14815" y1="51.8142" x2="29.8094" y2="13.1113" gradientUnits="userSpaceOnUse">
<stop offset="0.3122" stop-color="#549ADA"/>
<stop offset="0.9513" stop-color="#2A4BAC"/>
</linearGradient>
<linearGradient id="paint1_linear_2858_5675" x1="29.3345" y1="4.10496" x2="61.3311" y2="34.8091" gradientUnits="userSpaceOnUse">
<stop offset="0.3122" stop-color="#549ADA"/>
<stop offset="0.9513" stop-color="#2A4BAC"/>
</linearGradient>
<linearGradient id="paint2_linear_2858_5675" x1="67.555" y1="48.9805" x2="21.1106" y2="48.9806" gradientUnits="userSpaceOnUse">
<stop offset="0.3122" stop-color="#549ADA"/>
<stop offset="0.9513" stop-color="#2A4BAC"/>
</linearGradient>
</defs>
</svg>
